<svg width="85" height="20" viewBox="0 0 85 20" fill="none" xmlns="http://www.w3.org/2000/svg">
<path d="M8.82942 3.23441C9.13702 2.33071 10.4151 2.33072 10.7228 3.23441L11.7063 6.12387C11.8442 6.52914 12.2248 6.80165 12.6529 6.80165H15.7331C16.7131 6.80165 17.1083 8.0649 16.303 8.62337L13.8923 10.2953C13.5254 10.5497 13.3717 11.0165 13.5155 11.4392L14.455 14.1993C14.7658 15.1125 13.7311 15.893 12.9385 15.3432L10.346 13.5453C10.0032 13.3075 9.54893 13.3075 9.20619 13.5453L6.61371 15.3432C5.82104 15.893 4.78632 15.1125 5.09715 14.1993L6.03664 11.4392C6.18051 11.0165 6.02675 10.5497 5.65987 10.2953L3.24913 8.62337C2.44389 8.0649 2.83908 6.80165 3.81902 6.80165H6.89923C7.32733 6.80165 7.70795 6.52914 7.8459 6.12387L8.82942 3.23441Z" fill="#FFA858"/>
<path d="M25.0121 3.3802C25.3114 2.45888 26.6148 2.45888 26.9142 3.3802L27.8013 6.11048C27.9351 6.5225 28.3191 6.80147 28.7523 6.80147H31.6231C32.5918 6.80147 32.9946 8.04107 32.2109 8.61048L29.8883 10.2979C29.5379 10.5526 29.3912 11.004 29.5251 11.416L30.4122 14.1464C30.7115 15.0677 29.657 15.8338 28.8733 15.2644L26.5509 13.577C26.2004 13.3223 25.7258 13.3223 25.3753 13.577L23.0529 15.2644C22.2692 15.8338 21.2147 15.0677 21.514 14.1464L22.4012 11.416C22.535 11.004 22.3884 10.5526 22.0379 10.2979L19.7153 8.61047C18.9316 8.04107 19.3344 6.80147 20.3031 6.80147H23.1739C23.6071 6.80147 23.9911 6.5225 24.125 6.11048L25.0121 3.3802Z" fill="#FFA858"/>
<path d="M41.2035 3.23441C41.5111 2.33071 42.7892 2.33072 43.0968 3.23441L44.0803 6.12387C44.2182 6.52914 44.5989 6.80165 45.027 6.80165H48.1072C49.0871 6.80165 49.4823 8.0649 48.6771 8.62337L46.2663 10.2953C45.8994 10.5497 45.7457 11.0165 45.8896 11.4392L46.829 14.1993C47.1399 15.1125 46.1051 15.893 45.3125 15.3432L42.72 13.5453C42.3773 13.3075 41.923 13.3075 41.5802 13.5453L38.9877 15.3432C38.1951 15.893 37.1604 15.1125 37.4712 14.1993L38.4107 11.4392C38.5545 11.0165 38.4008 10.5497 38.0339 10.2953L35.6232 8.62337C34.8179 8.0649 35.2131 6.80165 36.1931 6.80165H39.2733C39.7014 6.80165 40.082 6.52914 40.2199 6.12387L41.2035 3.23441Z" fill="#FFA858"/>
<path d="M57.3861 3.3802C57.6854 2.45888 58.9888 2.45888 59.2882 3.3802L60.1753 6.11048C60.3092 6.5225 60.6931 6.80147 61.1263 6.80147H63.9971C64.9658 6.80147 65.3686 8.04107 64.5849 8.61048L62.2624 10.2979C61.9119 10.5526 61.7652 11.004 61.8991 11.416L62.7862 14.1464C63.0856 15.0677 62.0311 15.8338 61.2474 15.2644L58.9249 13.577C58.5744 13.3223 58.0998 13.3223 57.7493 13.577L55.4269 15.2644C54.6432 15.8338 53.5887 15.0677 53.8881 14.1464L54.7752 11.416C54.909 11.004 54.7624 10.5526 54.4119 10.2979L52.0894 8.61047C51.3057 8.04107 51.7085 6.80147 52.6772 6.80147H55.5479C55.9812 6.80147 56.3651 6.5225 56.499 6.11048L57.3861 3.3802Z" fill="#FFA858"/>
<path d="M73.5775 3.23441C73.8851 2.33071 75.1632 2.33072 75.4708 3.23441L76.4543 6.12387C76.5923 6.52914 76.9729 6.80165 77.401 6.80165H80.4812C81.4611 6.80165 81.8563 8.0649 81.0511 8.62337L78.6403 10.2953C78.2735 10.5497 78.1197 11.0165 78.2636 11.4392L79.2031 14.1993C79.5139 15.1125 78.4792 15.893 77.6865 15.3432L75.094 13.5453C74.7513 13.3075 74.297 13.3075 73.9542 13.5453L71.3618 15.3432C70.5691 15.893 69.5344 15.1125 69.8452 14.1993L70.7847 11.4392C70.9286 11.0165 70.7748 10.5497 70.4079 10.2953L67.9972 8.62337C67.1919 8.0649 67.5871 6.80165 68.5671 6.80165H71.6473C72.0754 6.80165 72.456 6.52914 72.594 6.12387L73.5775 3.23441Z" fill="#FFA858"/>
</svg>
